<svg xmlns="http://www.w3.org/2000/svg" xmlns:xlink="http://www.w3.org/1999/xlink" width="87" height="87" viewBox="0 0 87 87"><defs><clipPath id="a"><circle cx="43.5" cy="43.5" r="43.5" transform="translate(1595 -1165)" fill="#fff"/></clipPath></defs><g transform="translate(-1595 1165)"><g transform="translate(1595 -1165)" fill="#171920" stroke="#252a34" stroke-width="2"><circle cx="43.5" cy="43.5" r="43.5" stroke="none"/><circle cx="43.5" cy="43.5" r="42.5" fill="none"/></g><g clip-path="url(#a)"><g transform="translate(1593.194 -1145.612)"><path d="M71.552,33.963a.539.539,0,0,0,.391-.935l-.037-.147.015-.035a1.449,1.449,0,0,1,2.672.01,12.864,12.864,0,0,1,1.13,3.22,4.285,4.285,0,0,1-.075,1.474,17.182,17.182,0,0,0,1.563-7.136,16.584,16.584,0,0,0-.1-1.85q-.085-.755-.236-1.5A17.381,17.381,0,0,0,73.425,19.7a4.625,4.625,0,0,1-1.924-2,3.528,3.528,0,0,1-.321-.964,4.355,4.355,0,0,0,.282-1.5c.131-.2.364-.3.507-.49.709-.961,1.686-.793,2.2.513,1.089.55,1.1,1.461.431,2.338-.425.558-.484,1.313-.857,1.91.038.049.078.1.117.146a17.494,17.494,0,0,1,1.826,2.893,7.272,7.272,0,0,1,.434-3.378A12.181,12.181,0,0,1,78,16.454a1.493,1.493,0,0,1,2.658.733l0,.038q-.153.086-.3.183a.732.732,0,0,0,.3,1.332l.015,0a7.278,7.278,0,0,1-.192,1.089c.88,3.4-1.02,4.642-3.732,4.7-.06.031-.118.061-.178.091a17.855,17.855,0,0,1,.961,4.523,16.935,16.935,0,0,1-.012,2.734l0-.032a4.475,4.475,0,0,1,1.528-2.584c1.176-.966,2.836-1.321,4.1-2.1a.84.84,0,0,1,1.286.817l-.005.034a4.916,4.916,0,0,0-.551.266q-.153.086-.3.183a.732.732,0,0,0,.3,1.332l.015,0,.031,0a7.286,7.286,0,0,1-1.34,2.1c-.55,2.971-2.913,3.252-5.441,2.387h0a17.85,17.85,0,0,1-1.2,3.5H71.659c-.015-.048-.029-.1-.043-.144a4.867,4.867,0,0,0,1.185-.071c-.318-.39-.636-.783-.953-1.173l-.02-.023c-.161-.2-.324-.4-.485-.6h0a7.128,7.128,0,0,1,.209-1.816Z" transform="translate(-17.703 -13.589)" fill="#f2f2f2"/><path d="M85.069,22.9c-.8-2.9,5.627-5.394,7.314-3.055a1.84,1.84,0,0,1,1.5-.432,3.1,3.1,0,0,1,1.059.6,4.181,4.181,0,0,1,1.189,1.2,1.423,1.423,0,0,1-.053,1.6,3.551,3.551,0,0,1-1.613.651c-.31.063-.571.114-.8.151a1.521,1.521,0,0,1-.265-1.006,1.234,1.234,0,0,0-.538.906c-.006.075,2.507,9.321,2.507,9.321a5.48,5.48,0,0,1-.948.426,11.926,11.926,0,0,1-1.479-3.223,10.327,10.327,0,0,0,.029,2.295,12.623,12.623,0,0,0,.216,1.271c-2.986.645-7.478.432-9.432-2.309v-.034a.466.466,0,0,0-.9-.163c-.047.121-.091.226-.13.309C82.156,29.369,82.893,27.013,85.069,22.9Z" transform="translate(-17.467 -13.489)" fill="#2f2e41"/><path d="M80.039,70.514v.1a.4.4,0,0,1,0-.1Z" transform="translate(-17.519 -12.418)" fill="#2f2e41"/><path d="M82.9,54.415a1.625,1.625,0,0,1,.231-.045Q83,54.392,82.9,54.415Z" transform="translate(-17.46 -12.753)" fill="#2f2e41"/><path d="M82.838,54.431l.068-.017C82.883,54.42,82.861,54.424,82.838,54.431Z" transform="translate(-17.461 -12.752)" fill="#2f2e41"/><path d="M104.506,80.378H93.561a.87.87,0,0,1-.234-1.072,1.317,1.317,0,0,0-.287-1.312,1.862,1.862,0,0,1-.375-1.716c.29-1.013-.846-3.872-.846-3.872s-.613,3.692-1.363,7.972H80.045a1.935,1.935,0,0,1,0-1.959c.607-1.029,0-1.226,0-1.226a2.09,2.09,0,0,1,0-1.987c.607-.836,0-4.248,0-4.248.023.151.2-.123.462-.7.405-.875,1.024-2.449,1.65-4.276.447-1.3.9-2.739,1.275-4.141h0q.148-.553.281-1.1c.173-.71.321-1.4.433-2.046a9.237,9.237,0,0,0,.137-3.371c-.155-.648-.5-1.006-1.083-.945.315-.052.775-.1,1.343-.148l.318-.026c4.236-.32,13.323-.5,13.323-.5l2.783,4.984L104.494,65S104.4,73.475,104.506,80.378Z" transform="translate(-17.525 -12.767)" fill="#2f2e41"/><path d="M92.816,32.628,86.4,31.268,85.13,33.831l-4.288,2.482s2.764,11.3,2.748,12.891c-.04,4.035-6.5,13.081-1.62,12.385s5.868-3.611,7.433-3.15c1.412.416,3.136,2.265,4.29.942s1.561.2,2.291.257c.347.025.138-1.67,1.011.053s5.5-.6,3.932-2.165c-2.612-2.612-3.143-21.869-3.143-21.869l-2.908-.895Z" transform="translate(-17.517 -13.233)" fill="#dadcdf"/><path d="M80.762,72.99a1.539,1.539,0,0,0-.159-2.141,1.473,1.473,0,0,0-.2-.143l1.072-5.262L79,63.96l-.689,7.367a1.535,1.535,0,0,0,.354,1.84,1.469,1.469,0,0,0,2.072-.147Z" transform="translate(-17.558 -12.554)" fill="#a0616a"/><path d="M88.461,45.855c-.016-.169-.231-.246-.53-.352a3.28,3.28,0,0,1-.848-.4c-.662-.478-.4-.978-.041-1.67.07-.134.144-.274.212-.42.2-.431-.121-2.207-.967-5.282-.261-.946-.26-1.615-.44-2.058s-.539-.662-1.518-.708a4.477,4.477,0,0,0-3.223,1.146l-.072.066q-.067.063-.132.129a4.474,4.474,0,0,0-1.3,3.076l0,.2-.2,9.393-.568,8.243-.783,11.354.58.028,2.313.115.281.014.666-2.793.8-3.36.294-1.234.914-3.83.426-1.79.261-1.093.106-.446L85.2,52.01c.012-.046,1.2-4.743,2.575-5.529C88.29,46.189,88.475,46.019,88.461,45.855Z" transform="translate(-17.561 -13.156)" fill="#dadcdf"/><path d="M103.366,72.938a1.539,1.539,0,0,1-.072-2.146,1.48,1.48,0,0,1,.181-.164l-1.631-5.117,2.305-1.741,1.477,7.251a1.535,1.535,0,0,1-.154,1.868,1.469,1.469,0,0,1-2.076.077Z" transform="translate(-17.066 -12.558)" fill="#a0616a"/><path d="M104.679,62.424s-1.8-6.325-1.249-7.01-1.071-.818-.373-2.094-.265-1.489-.265-1.489l-.523-2.932-.934-7.2-.028-.214-.272-2.1a4.487,4.487,0,0,0-1.769-3.033l-.075-.055q-.173-.124-.353-.23a4.479,4.479,0,0,0-2.979-.566c-1.938.3-1.335,1.024-1.649,2.96-.511,3.148-.643,4.949-.394,5.355.084.137.172.268.256.394.433.65.745,1.118.138,1.666a3.312,3.312,0,0,1-.8.489c-.285.138-.492.237-.489.407s.2.313.745.549A5.8,5.8,0,0,1,95.6,49.8a27.332,27.332,0,0,1,1.221,2.745l4.949,13.92.807,2.27.278-.044,2.287-.363.574-.091Z" transform="translate(-17.252 -13.146)" fill="#dadcdf"/><circle cx="5.232" cy="5.232" r="5.232" transform="translate(67.361 7.475)" fill="#a0616a"/><path d="M82.271,23.3c-.8-2.9,5.627-5.394,7.314-3.055a1.84,1.84,0,0,1,1.5-.432,3.1,3.1,0,0,1,1.059.6,4.181,4.181,0,0,1,1.189,1.2,1.423,1.423,0,0,1-.053,1.6,3.551,3.551,0,0,1-1.613.651c-.31.063-.571.114-.8.151a1.521,1.521,0,0,1-.265-1.006,1.234,1.234,0,0,0-.538.906c-.006.075,2.507,9.321,2.507,9.321a5.481,5.481,0,0,1-.948.426,11.927,11.927,0,0,1-1.479-3.223,10.327,10.327,0,0,0,.029,2.295A12.623,12.623,0,0,0,90.391,34c-2.986.645-7.478.432-9.432-2.309v-.034a.466.466,0,0,0-.9-.163c-.047.121-.091.226-.13.309C79.359,29.769,80.1,27.413,82.271,23.3Z" transform="translate(-17.525 -13.481)" fill="#2f2e41"/><path d="M84.137,20.54" transform="translate(-17.434 -13.456)" fill="#2f2e41"/><path d="M57.063,41.334a.539.539,0,0,1-.391-.935l.037-.147-.015-.035a1.449,1.449,0,0,0-2.672.01,12.864,12.864,0,0,0-1.13,3.22,4.286,4.286,0,0,0,.075,1.474A17.182,17.182,0,0,1,51.4,37.784a16.586,16.586,0,0,1,.1-1.85q.085-.755.236-1.5a17.381,17.381,0,0,1,3.447-7.366,4.626,4.626,0,0,0,1.924-2,3.528,3.528,0,0,0,.321-.964,4.354,4.354,0,0,1-.282-1.5c-.131-.2-.364-.3-.507-.49-.709-.961-1.686-.793-2.2.513-1.089.55-1.1,1.461-.431,2.338.425.558.484,1.313.857,1.91-.038.049-.078.1-.117.146a17.493,17.493,0,0,0-1.826,2.893,7.272,7.272,0,0,0-.434-3.378,12.181,12.181,0,0,0-1.88-2.713,1.493,1.493,0,0,0-2.658.733l0,.038q.153.086.3.183a.732.732,0,0,1-.3,1.332l-.015,0a7.281,7.281,0,0,0,.192,1.089c-.88,3.4,1.02,4.642,3.732,4.7.06.031.118.061.178.091a17.855,17.855,0,0,0-.961,4.523,16.934,16.934,0,0,0,.012,2.734l0-.032a4.475,4.475,0,0,0-1.528-2.584c-1.176-.966-2.836-1.321-4.1-2.1a.84.84,0,0,0-1.286.817l.005.034a4.915,4.915,0,0,1,.551.266q.153.086.3.183a.732.732,0,0,1-.3,1.332l-.015,0-.031,0a7.287,7.287,0,0,0,1.34,2.1c.55,2.971,2.913,3.252,5.441,2.387h0a17.85,17.85,0,0,0,1.2,3.5h4.283c.015-.048.029-.1.043-.144a4.867,4.867,0,0,1-1.185-.071c.318-.39.636-.783.953-1.173l.02-.023c.161-.2.324-.4.485-.6h0a7.129,7.129,0,0,0-.209-1.816Z" transform="translate(-18.264 -13.436)" fill="#f2f2f2"/><path d="M37.29,19.827c-.1.227-3.095.2-3.232.4-1.059,1.558,2.757,8.184,1.7,9.744l-.147.176a6.968,6.968,0,0,0,.992-.56c.028-.638.057-1.279.087-1.917a5.269,5.269,0,0,1,.76,1.335,8.648,8.648,0,0,1,1.5-1.129,6.625,6.625,0,0,1,1.464-1.205Z" transform="translate(-18.478 -13.47)" fill="#2f2e41"/><path d="M39.78,32.34a2.483,2.483,0,0,0-3.761,1.469L31.463,45.678l-7.83-4.445a2.424,2.424,0,1,0-1.512,2.411c1.649,1.76,8.8,8.976,11.757,6.156,2.488-2.37,6.078-11.554,6.942-14.726a2.483,2.483,0,0,0-1.04-2.734Z" transform="translate(-18.791 -13.219)" fill="#ffb6b6"/><path d="M12.182,36.324l1.438,6.5,10.512.951.966-5.657Z" transform="translate(0.253 0.755)" fill="#ffb6b6"/><path d="M47.172,66.5c0,.093-.011.185-.017.278-.1,1.346-.216,2.9-.341,4.6-.2,2.7-.417,5.775-.639,8.992H24.127L28.4,67.515a1.89,1.89,0,0,0,.848-2.548c-.879-1.6.851-.324.867-2.6a10.551,10.551,0,0,1,1.566-4.707l.254-3.453.145,0,11.474.191.209,0,.352,2.964A13.105,13.105,0,0,1,47.172,66.5Z" transform="translate(-18.68 -12.757)" fill="#2f2e41"/><path d="M37.545,29.253l5.232-.27,2.43,3.84s4.572.764,4.256,6.153S43.9,49.092,43.9,49.092l.224-.769-.389,1.113.05.625.531.662.055.684L43.9,52.49h0a.619.619,0,0,1-.587.943l-7.56-.758c-.172-.473-.31-1.04-1-.1l-.712-.069-2.961-.287-.174-.635a2.459,2.459,0,0,1,.4-2.121h0a3.244,3.244,0,0,1,.188-2.435L31.508,47l.314-.262s-3.44-5.167.509-9.059l1.585-2.694,1.773-2.163Z" transform="translate(-18.549 -13.28)" fill="#636e83"/><circle cx="4.962" cy="4.962" r="4.962" transform="translate(15.336 3.782)" fill="#ffb6b6"/><path d="M42.585,29.452a2.389,2.389,0,0,1-.8-1.313,5.134,5.134,0,0,0,.071,1.875c-.269.2-.529.394-.776.568a5.269,5.269,0,0,0-.76-1.335c-.03.638-.059,1.279-.087,1.917a6.968,6.968,0,0,1-.992.56l.147-.176c1.059-1.56-1.681-4.43-.622-5.988.3-.436-1.044-3.885-2.067-4.04-.909-.137-.871.125-1.751.317a4.408,4.408,0,0,0-.422-1.093,3.611,3.611,0,0,1-.034,1.151c-.313.012-.559-.187-.893-.238-2.127-.325-1.911-2.626-1.319-3.355s2.566-.945,3.475-1.182c.083-.081.271-.03.354-.107a6.077,6.077,0,0,1,6.169-1.152,6.463,6.463,0,0,1,4.346,4.461l.205,1.8a14.648,14.648,0,0,1-.205,3.857C46.011,28.256,44.7,27.119,42.585,29.452Z" transform="translate(-18.519 -13.56)" fill="#2f2e41"/><path d="M49.571,52.555l-.2-15.213a2.456,2.456,0,0,0-2.455-2.417h0a2.456,2.456,0,0,0-2.452,2.586l.687,15.8.013,9.616a2.143,2.143,0,1,0,2.631.8Z" transform="translate(-18.27 -13.157)" fill="#ffb6b6"/><path d="M75.006,71.656s-.3,5.433-.441,8.532h-10.4c-.214-2.82-.286-4.892-.286-4.892l-.569,4.892H52.8l-.652-9.06,3.15-7.807s17.068-1.184,18.651.318S75.006,71.656,75.006,71.656Z" transform="translate(-18.098 -12.576)" fill="#2f2e41"/><circle cx="5.681" cy="5.681" r="5.681" transform="translate(42.03 2.013)" fill="#ffb6b6"/><path d="M72.283,19.448c-.584.266-.962,2.193-1.42,1.745s-.428-1.031-1.046-1.2a2.1,2.1,0,0,0-1.492.261c-.081.043-.16.089-.237.135-.051-.034-.1-.066-.155-.1a1.805,1.805,0,0,0-1.329-.149,1.771,1.771,0,0,1,.875.645c-.152.1-.307.2-.465.3-1.319.761-3.2-.894-4.586-1.516.87,1.632.442,2.308-.314,4l-.026.1c.043-.423-1.266-.738-1.19-.143a7.172,7.172,0,0,0,.625,1.736,8.017,8.017,0,0,1-2.247-5.886,3.111,3.111,0,0,1,.263-1.309,1.022,1.022,0,0,1,1.14-.51,3.767,3.767,0,0,1,5.67-3.447,14.394,14.394,0,0,1,1.5,1.163,3.132,3.132,0,0,0,1.709.763,2.478,2.478,0,0,1,1.185.129c.4.242.469.747.529,1.234a1.8,1.8,0,0,0-.971.4,1.764,1.764,0,0,1,1.062.228l.017.01C71.591,18.842,71.569,19.02,72.283,19.448Z" transform="translate(-17.951 -13.6)" fill="#2f2e41"/><path d="M52.809,66.809c4.838-5.663,3.2-12.865,1.284-20.136l.365-10.741a3.286,3.286,0,0,1,1.487-2.639l4.939-3.226,1.922-2.779,5.3.53,2.938,3.107,3.252,2.483a5.388,5.388,0,0,1,1.991,5.446L73.174,52.929s1.3,7.3.507,8.1-2.841,0-1.218.905c1.948,1.086,3.719.885,2.733,1.871s.262,2.356.262,2.356Z" transform="translate(-18.085 -13.315)" fill="#636e83"/><path d="M54.91,74.2l.807-5.746L52.5,67.538l-.637,6.105a1.942,1.942,0,1,0,3.048.559Z" transform="translate(-18.117 -12.48)" fill="#ffb6b6"/><path d="M61.05,31.025s-9.16,2.981-9.379,5.163-.146,3.517-1.113,12.246l.051,23.514s6.141,1.315,5.512-.091a3.188,3.188,0,0,1-.41-2.067,1.829,1.829,0,0,0,.987-2.17c-.33-1.651,1.323-9.831,1.323-9.831l1.043-14.671Z" transform="translate(-18.131 -13.238)" fill="#636e83"/><path d="M71.911,73.9l-.429-5.786,3.271-.706.236,6.134a1.942,1.942,0,1,1-3.078.359Z" transform="translate(-17.697 -12.482)" fill="#ffb6b6"/><path d="M68.726,30.427S77.672,34,77.747,36.191s-.084,3.519.31,12.292l-1.588,23.46s-6.214.911-5.494-.451a3.188,3.188,0,0,0,.544-2.036,1.829,1.829,0,0,1-.843-2.23c.437-1.626-.678-9.9-.678-9.9l-.082-14.708Z" transform="translate(-17.754 -13.25)" fill="#636e83"/></g></g></g></svg>