<svg xmlns="http://www.w3.org/2000/svg" xmlns:xlink="http://www.w3.org/1999/xlink" width="87" height="87" viewBox="0 0 87 87"><defs><clipPath id="a"><circle cx="43.5" cy="43.5" r="43.5" transform="translate(1595 -1165)" fill="#fff"/></clipPath></defs><g transform="translate(-1595 1165)"><g transform="translate(1595 -1165)" fill="#171920" stroke="#252a34" stroke-width="2"><circle cx="43.5" cy="43.5" r="43.5" stroke="none"/><circle cx="43.5" cy="43.5" r="42.5" fill="none"/></g><g clip-path="url(#a)"><g transform="translate(1563.645 -1153.413)"><path d="M30.969,62.412A12.865,12.865,0,0,0,26.7,69.25a12.865,12.865,0,0,0,7.772-2.136,12.865,12.865,0,0,0,4.267-6.839A12.865,12.865,0,0,0,30.969,62.412Z" transform="translate(-8.132 7.91)" fill="#f1f1f1"/><path d="M32.573,65.562a12.865,12.865,0,0,1-5.6,5.8,12.865,12.865,0,0,1,.187-8.058,12.865,12.865,0,0,1,5.6-5.8A12.865,12.865,0,0,1,32.573,65.562Z" transform="translate(-8.351 5.923)" fill="#f1f1f1"/><path d="M86,60.433h0a33.166,33.166,0,0,1-.278-7.19L86,49.272h0C84.465,52.324,84.812,56.34,86,60.433Z" transform="translate(33.872 -0.01)" fill="#cacaca"/><path d="M86.471,58.927h0a24.381,24.381,0,0,1-.134-4.28l.134-2.364h0C85.733,54.1,85.9,56.491,86.471,58.927Z" transform="translate(34.595 2.16)" fill="#cacaca"/><path d="M94.14,58.01v1.329a.4.4,0,0,1-.4.4h-.664a.132.132,0,0,0-.133.133v10.9a.4.4,0,0,1-.4.4H84.441a.4.4,0,0,1-.4-.4V59.87a.133.133,0,0,0-.133-.133h-.8a.4.4,0,0,1-.4-.4V58.01a.4.4,0,0,1,.4-.4h10.63A.4.4,0,0,1,94.14,58.01Z" transform="translate(32.242 6.001)" fill="#f2f2f2"/><rect width="8.902" height="0.399" transform="translate(116.296 66.017)" fill="#dadcdf"/><path d="M92.443,63.9a11.441,11.441,0,0,1-9.035,0V61.1a14.189,14.189,0,0,1,9.035,0Z" transform="translate(32.743 7.98)" fill="#dadcdf"/><circle cx="12.041" cy="12.041" r="12.041" transform="translate(63.247 4.864)" fill="#feb8b8"/><path d="M76.623,27.162a13.906,13.906,0,0,0-7.911-6.047l-1.478,1.079v-1.4a12.8,12.8,0,0,0-2.391-.139l-1.275,1.154V20.749a13.774,13.774,0,0,0-9.5,5.652c-2.77,3.993-3.237,9.547-.513,13.572.748-2.3,1.655-4.454,2.4-6.752a6.8,6.8,0,0,0,1.772.009l.91-2.123.254,2.033c2.82-.246,7-.785,9.676-1.279l-.26-1.56,1.555,1.3c.819-.188,1.305-.36,1.265-.49,1.988,3.205,4.421,5.252,6.409,8.458C78.293,35.044,79.162,31.286,76.623,27.162Z" transform="translate(9.911 -20.645)" fill="#2f2e41"/><path d="M95.849,55.562a24.386,24.386,0,0,0-2-7.274,5.513,5.513,0,0,0-3.6-3.161,3.479,3.479,0,0,1-.937-.217c-.477-.23-6.888-3.89-7.907-4.527-.875-.547-2.256-1.56-2.952-1.56-.7-.015-3.387.61-13.872-.21a37.87,37.87,0,0,0-5.109,2.512c-.034-.022-10.883,5.8-11.29,5.788A2.371,2.371,0,0,0,46.253,48a7.012,7.012,0,0,0-.867,2.138c2.37,5.277,4.538,10.561,6.907,15.838a1.351,1.351,0,0,1,.171.65,1.586,1.586,0,0,1-.295.65c-1.162,1.867-1.125,4.215-1,6.409s.284,4.512-.7,6.478c-.267.54-.614,1.034-.867,1.574a14.916,14.916,0,0,0-.462,6.448l43.47,1.245C91.682,86.858,95.849,55.562,95.849,55.562Z" transform="translate(5.336 -7.694)" fill="#636e83"/><path d="M43.233,55.885a7.675,7.675,0,0,0-.026,1.893l.623,8.948c.059.843.116,1.685.2,2.526.149,1.633.373,3.252.65,4.869a.867.867,0,0,0,.889.843,31.8,31.8,0,0,0,8.375.4c4.271-.238,15.2-.689,15.866-1.557a2.273,2.273,0,0,0-.592-2.971c-.87-.7-15.291-2.411-15.291-2.411a14.209,14.209,0,0,1,.969-3.228,16.767,16.767,0,0,0,1.414-5.836,6.354,6.354,0,0,0-2.4-5.286,7.919,7.919,0,0,0-4.759-1.084c-1.2.035-3.283-.254-4.382.217C43.9,53.589,43.4,55.033,43.233,55.885Z" transform="translate(3.731 2.628)" fill="#fbbebe"/><path d="M47.106,45.981a2.244,2.244,0,0,0-.481.77,36.394,36.394,0,0,0-3.057,12.492,1.249,1.249,0,0,1-.141.6,2.647,2.647,0,0,1-.319.345,1.2,1.2,0,0,0,.143,1.687q.03.025.061.048a2.333,2.333,0,0,1,1.975-.952c3.644-.288,7.2,1.407,10.86,1.279-.258-.891-.629-1.747-.839-2.649-.93-4,1.39-8.364-.033-12.221a3.152,3.152,0,0,0-1.507-1.869,4.013,4.013,0,0,0-.965-.255c-.924-.167-2.762-.88-3.655-.594-.33.106-.46.416-.733.6A6.893,6.893,0,0,0,47.106,45.981Z" transform="translate(3.49 -3.379)" fill="#636e83"/><path d="M85.354,53.206c-1.1-.471-3.178-.182-4.382-.217a7.919,7.919,0,0,0-4.759,1.084,6.354,6.354,0,0,0-2.4,5.286A16.767,16.767,0,0,0,75.232,65.2a14.209,14.209,0,0,1,.969,3.228s-14.42,1.71-15.291,2.411a2.273,2.273,0,0,0-.592,2.971c.668.867,21.5,1.738,24.241,1.158a.867.867,0,0,0,.889-.843c.277-1.617.5-3.237.65-4.869.079-.841.137-1.682.2-2.526l.623-8.948a7.675,7.675,0,0,0-.026-1.893C86.728,55.033,86.224,53.589,85.354,53.206Z" transform="translate(15.856 2.628)" fill="#fbbebe"/><path d="M75.986,45.269c-.273-.187-.4-.5-.733-.6-.893-.286-2.732.427-3.655.594a4.013,4.013,0,0,0-.965.255,3.152,3.152,0,0,0-1.507,1.869c-1.422,3.857.9,8.217-.033,12.221-.21.9-.581,1.758-.839,2.649,3.655.128,7.215-1.568,10.86-1.279a2.333,2.333,0,0,1,1.975.952q.031-.023.061-.048a1.2,1.2,0,0,0,.143-1.687,2.646,2.646,0,0,1-.319-.345,1.249,1.249,0,0,1-.141-.6,36.393,36.393,0,0,0-3.057-12.492,2.244,2.244,0,0,0-.481-.77A6.893,6.893,0,0,0,75.986,45.269Z" transform="translate(21.819 -3.379)" fill="#636e83"/><circle cx="3.25" cy="3.25" r="3.25" transform="translate(68.472 71.52)" fill="#fbbebe"/><circle cx="3.25" cy="3.25" r="3.25" transform="translate(75.668 71.52)" fill="#fbbebe"/><path d="M92.955,81.344H48.307a1.968,1.968,0,0,1-1.966-1.966V52.291a1.968,1.968,0,0,1,1.966-1.966H92.955a1.968,1.968,0,0,1,1.966,1.966V79.378a1.968,1.968,0,0,1-1.966,1.966Z" transform="translate(6.024 0.749)" fill="#3f3d56"/><circle cx="1.301" cy="1.301" r="1.301" transform="translate(75.245 65.282)" fill="#fff"/><path d="M149.711,44.531H0v4.6H8.855V50.2h132V49.131h8.852Z" transform="translate(0 32.098)" fill="#f1f1f1"/><path d="M54.695,37.043h0a3.654,3.654,0,0,1-3.5-3.788h0V31.362a3.654,3.654,0,0,1,3.5-3.788h0Z" transform="translate(9.521 -15.651)" fill="#252a34"/><path d="M66.221,27.574h0a3.654,3.654,0,0,1,3.5,3.788v1.894a3.654,3.654,0,0,1-3.5,3.788h0Z" transform="translate(20.354 -15.651)" fill="#252a34"/><path d="M78.463,35.99h-.556c0-7.622-5.735-13.822-12.784-13.822S52.34,28.368,52.34,35.99h-.556c0-7.953,5.984-14.423,13.34-14.423S78.463,28.037,78.463,35.99Z" transform="translate(9.947 -19.981)" fill="#252a34"/></g></g></g></svg>