<svg xmlns="http://www.w3.org/2000/svg" width="24" height="24" viewBox="0 0 24 24"><g transform="translate(0 -0.16)"><path d="M194.989,319.841A2.989,2.989,0,0,0,192,322.83v5.977h5.977V322.83A2.989,2.989,0,0,0,194.989,319.841Z" transform="translate(-182.989 -304.647)" fill="#252a34"/><g transform="translate(0 0.16)"><path d="M17,18.156v6h4a3,3,0,0,0,3-3V12.031a2,2,0,0,0-.563-1.393l-8.5-9.193a4,4,0,0,0-5.652-.223q-.116.107-.223.223L.581,10.635A2,2,0,0,0,0,12.046v9.112a3,3,0,0,0,3,3H7v-6a5.059,5.059,0,0,1,4.878-5.021A5.063,5.063,0,0,1,17,18.156Z" transform="translate(0 -0.16)" fill="#252a34"/><path d="M194.989,319.841A2.989,2.989,0,0,0,192,322.83v5.977h5.977V322.83A2.989,2.989,0,0,0,194.989,319.841Z" transform="translate(-182.989 -304.807)" fill="#252a34"/></g></g></svg>