<svg xmlns="http://www.w3.org/2000/svg" width="24" height="24" viewBox="0 0 24 24"><path d="M23.121,9.074,15.536,1.484a5.006,5.006,0,0,0-7.072,0L.879,9.074A2.981,2.981,0,0,0,0,11.2V21.02a3,3,0,0,0,3,3H21a3,3,0,0,0,3-3V11.2A2.981,2.981,0,0,0,23.121,9.074ZM15,22.02H9V18.084a3,3,0,1,1,6,0Zm7-1a1,1,0,0,1-1,1H17V18.084a5,5,0,1,0-10,0V22.02H3a1,1,0,0,1-1-1V11.2a1.009,1.009,0,0,1,.293-.707L9.878,2.9a3.007,3.007,0,0,1,4.244,0l7.585,7.591a1.009,1.009,0,0,1,.293.7Z" transform="translate(0 -0.021)" fill="#fff"/></svg>