<svg xmlns="http://www.w3.org/2000/svg" width="36.5" height="36.5" viewBox="0 0 36.5 36.5"><path d="M28.9,6.083h-.773L24.8,1.776A4.6,4.6,0,0,0,21.188,0H15.312A4.6,4.6,0,0,0,11.7,1.776L8.377,6.083H7.6a7.613,7.613,0,0,0-7.6,7.6V28.9a7.613,7.613,0,0,0,7.6,7.6H28.9a7.613,7.613,0,0,0,7.6-7.6V13.688a7.613,7.613,0,0,0-7.6-7.6ZM14.107,3.635a1.53,1.53,0,0,1,1.2-.593h5.877a1.533,1.533,0,0,1,1.2.593l1.889,2.449H12.218ZM33.458,28.9A4.562,4.562,0,0,1,28.9,33.458H7.6A4.563,4.563,0,0,1,3.042,28.9V13.688A4.563,4.563,0,0,1,7.6,9.125H28.9a4.562,4.562,0,0,1,4.562,4.563Z" transform="translate(0 0)" fill="#636e83"/><path d="M15.125,8a9.125,9.125,0,1,0,9.125,9.125A9.125,9.125,0,0,0,15.125,8Zm0,15.208a6.083,6.083,0,1,1,6.083-6.083A6.083,6.083,0,0,1,15.125,23.208Z" transform="translate(3.125 4.167)" fill="#636e83"/></svg>