<svg xmlns="http://www.w3.org/2000/svg" width="12.417" height="11.394" viewBox="0 0 12.417 11.394"><path d="M12.417,4.859v5.96a.517.517,0,1,1-1.035,0V6.552L7.554,8.382a2.587,2.587,0,0,1-1.333.359,2.728,2.728,0,0,1-1.4-.382L1.005,6.541A1.91,1.91,0,0,1,.962,3.2l.043-.023L4.863,1.337A2.7,2.7,0,0,1,7.6,1.36l3.816,1.818a1.949,1.949,0,0,1,1.005,1.681ZM6.22,9.774a3.756,3.756,0,0,1-1.886-.5L2.07,8.191v1.4A2.59,2.59,0,0,0,3.89,12.06a8.049,8.049,0,0,0,2.318.312,8.049,8.049,0,0,0,2.318-.314,2.59,2.59,0,0,0,1.821-2.472V8.193L8.041,9.3a3.613,3.613,0,0,1-1.821.48Z" transform="translate(0 -0.978)" fill="#ef9226"/></svg>