<svg xmlns="http://www.w3.org/2000/svg" width="27.544" height="28.106" viewBox="0 0 27.544 28.106"><path d="M144.041,109.634a12.042,12.042,0,0,0-.3-2.873H130.55v5.215h7.745a6.868,6.868,0,0,1-2.873,4.559l-.026.175,4.172,3.232.289.029a13.74,13.74,0,0,0,4.185-10.337" transform="translate(-116.497 -95.269)" fill="#4285f4"/><path d="M26.479,167.644a13.4,13.4,0,0,0,9.306-3.4L31.351,160.8a8.317,8.317,0,0,1-4.872,1.405,8.46,8.46,0,0,1-7.995-5.84l-.165.014-4.338,3.357-.057.158a14.043,14.043,0,0,0,12.554,7.745" transform="translate(-12.426 -139.537)" fill="#34a853"/><path d="M6.058,80.468a8.652,8.652,0,0,1-.468-2.779,9.091,9.091,0,0,1,.453-2.779l-.008-.186L1.643,71.312,1.5,71.38A14.024,14.024,0,0,0,1.5,84l4.559-3.529" transform="translate(0 -63.636)" fill="#fbbc05"/><path d="M26.479,5.434a7.789,7.789,0,0,1,5.434,2.092l3.966-3.872A13.5,13.5,0,0,0,26.479,0,14.043,14.043,0,0,0,13.925,7.745l4.544,3.529a8.495,8.495,0,0,1,8.01-5.84" transform="translate(-12.426)" fill="#eb4335"/></svg>