<svg xmlns="http://www.w3.org/2000/svg" width="30" height="25.633" viewBox="0 0 30 25.633"><g transform="translate(-35.467 -40)"><path d="M11.307,17.3v0s-6.332-2.537-6.159-5.5a7.381,7.381,0,0,0-1.675-5S-.018,2.008,0,2.023A1.9,1.9,0,0,1,2.819.211S8.008,5.362,9.38,6.8a9.488,9.488,0,0,1,1.927,3.742v.036c.064-.067,1.879-1.952,3.686-1.952s3.627,1.86,3.7,1.936v-.021A9.488,9.488,0,0,1,20.621,6.8C21.992,5.362,27.181.211,27.181.211A1.9,1.9,0,0,1,30,2.023c.018-.015-3.473,4.782-3.473,4.782a7.379,7.379,0,0,0-1.674,5c.166,2.842-5.653,5.253-6.122,5.443h0l-.011,0-.019.008v0a14.315,14.315,0,0,1-3.708.579A14.958,14.958,0,0,1,11.307,17.3Z" transform="translate(35.467 47.799)" fill="#f2f0f5"/><circle cx="2.571" cy="2.571" r="2.571" transform="translate(41.666 45.142)" fill="#f2f0f5"/><circle cx="2.571" cy="2.571" r="2.571" transform="translate(47.896 49.642)" fill="#f2f0f5"/><circle cx="2.571" cy="2.571" r="2.571" transform="translate(54.127 45.142)" fill="#f2f0f5"/><circle cx="2.571" cy="2.571" r="2.571" transform="translate(47.896 40)" fill="#f2f0f5"/></g></svg>