<svg xmlns="http://www.w3.org/2000/svg" width="15" height="15" viewBox="0 0 15 15"><path d="M0,15.625A3.129,3.129,0,0,0,3.125,18.75h8.75A3.129,3.129,0,0,0,15,15.625V10H0Zm10.625-2.812a.938.938,0,1,1-.937.938A.938.938,0,0,1,10.625,12.813Zm-3.125,0a.938.938,0,1,1-.937.938A.938.938,0,0,1,7.5,12.813Zm-3.125,0a.938.938,0,1,1-.937.938.937.937,0,0,1,.937-.937Z" transform="translate(0 -3.75)" fill="#636e83"/><path d="M11.875,1.25H11.25V.625a.625.625,0,1,0-1.25,0V1.25H5V.625a.625.625,0,1,0-1.25,0V1.25H3.125A3.129,3.129,0,0,0,0,4.375V5H15V4.375A3.129,3.129,0,0,0,11.875,1.25Z" fill="#636e83"/></svg>