<svg xmlns="http://www.w3.org/2000/svg" width="15.058" height="15.061" viewBox="0 0 15.058 15.061"><g transform="translate(0 0.004)"><path d="M21.845,2.822a.627.627,0,0,1-1.255,0,1.625,1.625,0,0,0-1.747-1.569.627.627,0,1,1,0-1.255,2.886,2.886,0,0,1,3,2.823Z" transform="translate(-6.786 0)" fill="#636e83"/><path d="M1.255,2.822A1.625,1.625,0,0,1,3,1.253.627.627,0,0,0,3,0,2.886,2.886,0,0,0,0,2.822a.627.627,0,1,0,1.255,0Z" transform="translate(0 0)" fill="#636e83"/><path d="M13.121,12.659A6.889,6.889,0,0,0,8.529,1.287V.627a.627.627,0,0,0-1.255,0v.659A6.889,6.889,0,0,0,2.682,12.659a1.9,1.9,0,0,0-1.055,1.772.627.627,0,1,0,1.255,0,.753.753,0,0,1,.7-.771.585.585,0,0,0,.125-.039,6.854,6.854,0,0,0,8.4,0,.648.648,0,0,0,.114.04.753.753,0,0,1,.7.77.627.627,0,1,0,1.255,0,1.9,1.9,0,0,0-1.055-1.772Zm-2.894-2.8a.627.627,0,0,1-.887,0L7.458,7.973a.627.627,0,0,1-.184-.444V4.392a.627.627,0,0,1,1.255,0V7.269l1.7,1.7A.627.627,0,0,1,10.228,9.855Z" transform="translate(-0.373 -0.001)" fill="#636e83"/></g></svg>